<svg id="圖層_1" data-name="圖層 1" xmlns="http://www.w3.org/2000/svg" viewBox="0 0 619.155 250.481">
  <defs>
    <style>
      .cls-1, .cls-4 {
        fill: none;
      }

      .cls-1, .cls-2, .cls-4 {
        stroke: #fff;
        stroke-miterlimit: 10;
      }

      .cls-1 {
        stroke-width: 3.717px;
      }

      .cls-2 {
        fill: #f2f2f2;
        stroke-width: 4.337px;
      }

      .cls-3 {
        fill: #fff;
      }

      .cls-4 {
        stroke-width: 6.196px;
      }

      .cls-5 {
        opacity: 0.55;
      }

      .cls-6 {
        opacity: 0.19;
      }
    </style>
  </defs>
  <title>51500f8a-e9e4-4405-869b-09de3d63703e</title>
  <g>
    <g>
      <line class="cls-1" x1="259.564" y1="185.023" x2="259.286" y2="221.417"/>
      <g>
        <path class="cls-2" d="M385.758,221.65l-62.039,26.5a2.063,2.063,0,0,1-1.621,0l-62.039-26.5a2.063,2.063,0,0,1,.3-3.9L322.4,201.891a2.063,2.063,0,0,1,1.022,0l62.039,15.863A2.063,2.063,0,0,1,385.758,221.65Z"/>
        <path class="cls-2" d="M385.758,186.365l-62.039,26.5a2.063,2.063,0,0,1-1.621,0l-62.039-26.5a2.063,2.063,0,0,1,.3-3.9L322.4,166.606a2.063,2.063,0,0,1,1.022,0l62.039,15.863A2.063,2.063,0,0,1,385.758,186.365Z"/>
        <g>
          <g>
            <path class="cls-3" d="M356.758,153.154v29.938c0-5.05-15.155-9.139-33.848-9.139s-33.854,4.089-33.854,9.139V153.154c0,5.05,15.155,9.139,33.854,9.139S356.758,158.2,356.758,153.154Z"/>
            <ellipse class="cls-3" cx="322.909" cy="183.09" rx="33.851" ry="9.136"/>
          </g>
          <g>
            <ellipse class="cls-4" cx="322.909" cy="183.09" rx="33.851" ry="9.136"/>
            <ellipse class="cls-4" cx="322.909" cy="153.155" rx="33.851" ry="9.136"/>
            <line class="cls-4" x1="289.056" y1="153.154" x2="289.056" y2="183.092"/>
            <line class="cls-4" x1="356.758" y1="153.154" x2="356.758" y2="183.092"/>
          </g>
        </g>
        <line class="cls-1" x1="387.149" y1="183.63" x2="386.872" y2="220.023"/>
        <line class="cls-1" x1="323.186" y1="211.919" x2="322.908" y2="248.312"/>
      </g>
    </g>
    <path class="cls-3" d="M322.628,90.4q0-11.679,0-23.358c0-1.9-.549-2.778-2.327-3.252-6.022-1.606-7.073-5.853-6.309-10.963A23.811,23.811,0,0,1,320.2,40.514c3.137-3.544,6.462-6.934,9.088-10.906a13.344,13.344,0,0,0,2.3-5.429,2.522,2.522,0,0,0-1.907-3.11c-1.319-.258-2.423.592-2.734,2.214-.432,2.256-1.772,4.011-3.1,5.762-2.826,3.716-6.235,6.938-9.086,10.632a26.057,26.057,0,0,0-5.772,15.308c-.165,5.273,2,10.083,7.408,12.4a2.054,2.054,0,0,1,1.4,2.249q-.052,21.374-.016,42.749a11.158,11.158,0,0,0,1.118,5.66,9.247,9.247,0,0,0,10.359,4.392,8.843,8.843,0,0,0,6.847-8.758c.046-6.5.014-13,.015-19.5,0-.294.019-.589,0-.881-.049-.69.241-.853.854-.6a9.311,9.311,0,0,0,3.656.66,8.218,8.218,0,0,0,6.681-3.038c.726-.888,1.2-.774,2.055-.3a9.5,9.5,0,0,0,11.277-1.575,9.068,9.068,0,0,0,2.015-3.991c.189-.736.479-.847,1.153-.62a11.575,11.575,0,0,0,5.659.367c3.675-.617,5.757-3,6.716-6.471a13.722,13.722,0,0,0,.5-3.7c-.015-6.757,0-13.515-.011-20.272-.015-9.086-2.419-17.392-8.063-24.64-.631-.811-1.205-1.666-1.8-2.506a7.834,7.834,0,0,1-1.385-3.32,2.439,2.439,0,0,0-2.727-2.26,2.591,2.591,0,0,0-1.959,3.014,12.221,12.221,0,0,0,2.454,5.7,62.02,62.02,0,0,1,5.2,7.907A31.714,31.714,0,0,1,371.682,49.8c.553,8.251.172,16.516.213,24.775a7.547,7.547,0,0,1-.256,1.737,4.774,4.774,0,0,1-7.4,2.518,3.3,3.3,0,0,1-1-2.588A5.8,5.8,0,0,0,363,74.509a2.269,2.269,0,0,0-2.176-1.569,2.355,2.355,0,0,0-2.215,1.672,4.532,4.532,0,0,0-.148,1.417,48.633,48.633,0,0,1-.218,6.268c-.453,3.256-2.468,4.708-5.543,3.946a3.569,3.569,0,0,1-2.948-3.5c-.1-1.238.149-2.506-.3-3.715a2.276,2.276,0,0,0-4.4.185,8.017,8.017,0,0,0-.191,1.633c-.031,1.138.011,2.278-.027,3.415a4.165,4.165,0,0,1-4.286,4.334,4.241,4.241,0,0,1-4.416-4.356c-.05-1.431.02-2.866-.033-4.3a2.363,2.363,0,1,0-4.719-.057c-.034.4-.017.807-.017,1.211q0,15.645,0,31.29c0,.441.009.882-.012,1.322a4.2,4.2,0,0,1-4.421,4.215,4,4,0,0,1-4.281-4.277c-.031-7.749-.011-15.5-.011-23.248Z"/>
    <g class="cls-5">
      <path class="cls-3" d="M322.628,69.392q0-11.679,0-23.358c0-1.9-.549-2.778-2.327-3.252-6.022-1.606-7.073-5.853-6.309-10.963A23.811,23.811,0,0,1,320.2,19.507c3.137-3.544,6.462-6.934,9.088-10.906a13.344,13.344,0,0,0,2.3-5.429A2.522,2.522,0,0,0,329.68.062c-1.319-.258-2.423.592-2.734,2.214-.432,2.256-1.772,4.011-3.1,5.762-2.826,3.716-6.235,6.938-9.086,10.632a26.057,26.057,0,0,0-5.772,15.308c-.165,5.273,2,10.083,7.408,12.4a2.054,2.054,0,0,1,1.4,2.249Q317.74,70,317.776,91.378a11.158,11.158,0,0,0,1.118,5.66,9.247,9.247,0,0,0,10.359,4.392,8.843,8.843,0,0,0,6.847-8.758c.046-6.5.014-13,.015-19.5,0-.294.019-.589,0-.881-.049-.69.241-.853.854-.6a9.311,9.311,0,0,0,3.656.66,8.218,8.218,0,0,0,6.681-3.038c.726-.888,1.2-.774,2.055-.3a9.5,9.5,0,0,0,11.277-1.575,9.068,9.068,0,0,0,2.015-3.991c.189-.736.479-.847,1.153-.62a11.575,11.575,0,0,0,5.659.367c3.675-.617,5.757-3,6.716-6.471a13.722,13.722,0,0,0,.5-3.7c-.015-6.757,0-13.515-.011-20.272-.015-9.086-2.419-17.392-8.063-24.64-.631-.811-1.205-1.666-1.8-2.506a7.834,7.834,0,0,1-1.385-3.32A2.439,2.439,0,0,0,362.7.034a2.591,2.591,0,0,0-1.959,3.014,12.221,12.221,0,0,0,2.454,5.7,62.02,62.02,0,0,1,5.2,7.907A31.714,31.714,0,0,1,371.682,28.8c.553,8.251.172,16.516.213,24.775a7.547,7.547,0,0,1-.256,1.737,4.774,4.774,0,0,1-7.4,2.518,3.3,3.3,0,0,1-1-2.588A5.8,5.8,0,0,0,363,53.5a2.269,2.269,0,0,0-2.176-1.569,2.355,2.355,0,0,0-2.215,1.672,4.532,4.532,0,0,0-.148,1.417,48.633,48.633,0,0,1-.218,6.268c-.453,3.256-2.468,4.708-5.543,3.946a3.569,3.569,0,0,1-2.948-3.5c-.1-1.238.149-2.506-.3-3.715a2.276,2.276,0,0,0-4.4.185,8.017,8.017,0,0,0-.191,1.633c-.031,1.138.011,2.278-.027,3.415a4.165,4.165,0,0,1-4.286,4.334,4.241,4.241,0,0,1-4.416-4.356c-.05-1.431.02-2.866-.033-4.3a2.363,2.363,0,1,0-4.719-.057c-.034.4-.017.807-.017,1.211q0,15.645,0,31.29c0,.441.009.882-.012,1.322a4.2,4.2,0,0,1-4.421,4.215,4,4,0,0,1-4.281-4.277c-.031-7.749-.011-15.5-.011-23.248Z"/>
    </g>
    <g class="cls-6">
      <path class="cls-3" d="M322.847,105.427q0-11.679,0-23.358c0-1.9-.549-2.778-2.327-3.252-6.022-1.606-7.073-5.853-6.309-10.963a23.811,23.811,0,0,1,6.214-12.312c3.137-3.544,6.462-6.934,9.088-10.906a13.344,13.344,0,0,0,2.3-5.429A2.522,2.522,0,0,0,329.9,36.1c-1.319-.258-2.423.592-2.734,2.214-.432,2.256-1.772,4.011-3.1,5.762-2.826,3.716-6.235,6.938-9.086,10.632A26.057,26.057,0,0,0,309.2,70.014c-.165,5.273,2,10.083,7.408,12.4a2.054,2.054,0,0,1,1.4,2.249q-.052,21.374-.016,42.749a11.158,11.158,0,0,0,1.118,5.66,9.247,9.247,0,0,0,10.359,4.392,8.843,8.843,0,0,0,6.847-8.758c.046-6.5.014-13,.015-19.5,0-.294.019-.589,0-.881-.049-.69.241-.853.854-.6a9.311,9.311,0,0,0,3.656.66,8.218,8.218,0,0,0,6.681-3.038c.726-.888,1.2-.774,2.055-.3a9.5,9.5,0,0,0,11.277-1.575,9.068,9.068,0,0,0,2.015-3.991c.189-.736.479-.847,1.153-.62a11.575,11.575,0,0,0,5.659.367c3.675-.617,5.757-3,6.716-6.471a13.722,13.722,0,0,0,.5-3.7c-.015-6.757,0-13.515-.011-20.272-.015-9.086-2.419-17.392-8.063-24.64-.631-.811-1.205-1.666-1.8-2.506a7.834,7.834,0,0,1-1.385-3.32,2.439,2.439,0,0,0-2.727-2.26,2.591,2.591,0,0,0-1.959,3.014,12.221,12.221,0,0,0,2.454,5.7,62.02,62.02,0,0,1,5.2,7.907A31.714,31.714,0,0,1,371.9,64.831c.553,8.251.172,16.516.213,24.775a7.547,7.547,0,0,1-.256,1.737,4.774,4.774,0,0,1-7.4,2.518,3.3,3.3,0,0,1-1-2.588,5.8,5.8,0,0,0-.236-1.735,2.269,2.269,0,0,0-2.176-1.569,2.355,2.355,0,0,0-2.215,1.672,4.532,4.532,0,0,0-.148,1.417,48.633,48.633,0,0,1-.218,6.268c-.453,3.256-2.468,4.708-5.543,3.946a3.569,3.569,0,0,1-2.948-3.5c-.1-1.238.149-2.506-.3-3.715a2.276,2.276,0,0,0-4.4.185,8.017,8.017,0,0,0-.191,1.633c-.031,1.138.011,2.278-.027,3.415a4.165,4.165,0,0,1-4.286,4.334,4.241,4.241,0,0,1-4.416-4.356c-.05-1.431.02-2.866-.033-4.3a2.363,2.363,0,1,0-4.719-.057c-.034.4-.017.807-.017,1.211q0,15.645,0,31.29c0,.441.009.882-.012,1.322a4.2,4.2,0,0,1-4.421,4.215,4,4,0,0,1-4.281-4.277c-.031-7.749-.011-15.5-.011-23.248Z"/>
    </g>
    <path class="cls-3" d="M24.065,184.485c2.269,1.227,3.792.826,5.241.829,18.783.036,37.566-.006,56.349.056,4.656.015,7.447,2.807,7.372,6.983-.071,3.99-2.8,6.537-7.245,6.72-1.1.045-2.193.018-3.29.018H25l-.648.971c3.595,3.452,7.2,6.892,10.779,10.363a41.866,41.866,0,0,1,3.7,3.853,6.761,6.761,0,0,1-.635,9.3c-2.5,2.376-6.419,2.8-8.971.315Q15.369,210.413,1.885,196.56c-2.629-2.709-2.449-6.235.175-8.927Q15.267,174.089,28.8,160.867a6.841,6.841,0,0,1,9.556,9.788C33.8,175.314,29,179.732,24.065,184.485Z"/>
    <path class="cls-3" d="M595.09,184.485c-2.269,1.227-3.792.826-5.241.829-18.783.036-37.566-.006-56.349.056-4.656.015-7.447,2.807-7.372,6.983.071,3.99,2.8,6.537,7.245,6.72,1.1.045,2.193.018,3.29.018h57.493l.648.971c-3.595,3.452-7.2,6.892-10.779,10.363a41.866,41.866,0,0,0-3.7,3.853,6.761,6.761,0,0,0,.635,9.3c2.5,2.376,6.419,2.8,8.971.315q13.855-13.475,27.339-27.329c2.629-2.709,2.449-6.235-.175-8.927q-13.207-13.544-26.742-26.767a6.841,6.841,0,0,0-9.556,9.788C585.351,175.314,590.152,179.732,595.09,184.485Z"/>
  </g>
</svg>
