<svg id="圖層_1" data-name="圖層 1" xmlns="http://www.w3.org/2000/svg" viewBox="0 0 68.706 347.478">
  <defs>
    <style>
      .cls-1, .cls-2, .cls-3 {
        fill: none;
        stroke-miterlimit: 10;
      }

      .cls-1 {
        stroke: #b3b3b3;
        stroke-width: 4px;
      }

      .cls-2, .cls-3 {
        stroke: #000;
      }

      .cls-2 {
        stroke-width: 4.918px;
      }

      .cls-3 {
        stroke-width: 5px;
      }
    </style>
  </defs>
  <title>390d2de1-0c6f-4313-a7ad-8e538d9acecb</title>
  <path d="M66.412,31.912H0V156.793s4.606,6.9,9.51,0V37.515h56.9S69.9,34.066,66.412,31.912Z"/>
  <rect x="15.691" y="39.609" width="50.444" height="6.496"/>
  <path d="M35.9,334.224v8.208a4.425,4.425,0,0,0,1.338,3.182c1.629,1.579,4.543,3.314,7.593-.126a4.417,4.417,0,0,0,1.094-2.928v-8.336a1.093,1.093,0,0,0-1.093-1.093H36.994A1.093,1.093,0,0,0,35.9,334.224Z"/>
  <path d="M29.717,29.412H52.109V9.86c0-5.445-2.15-9.86-4.8-9.86H34.519c-2.652,0-4.8,4.414-4.8,9.86Z"/>
  <line class="cls-1" x1="15.691" y1="198.093" x2="66.135" y2="198.093"/>
  <line class="cls-1" x1="15.691" y1="231.612" x2="66.135" y2="231.612"/>
  <rect class="cls-2" x="15.691" y="50.576" width="50.444" height="162.807"/>
  <path class="cls-3" d="M15.691,220.341l1.261,45.31c0,13.233,10.031,62.643,23.961,62.643h0c13.93,0,23.961-49.41,23.961-62.643l1.261-45.31Z"/>
</svg>
